<svg width="242" height="243" viewBox="0 0 242 243" fill="none" xmlns="http://www.w3.org/2000/svg">
<g clip-path="url(#clip0_1_1077)">
<g filter="url(#filter0_f_1_1077)">
<path d="M215.717 -92.0738C204.724 -82.7596 195.662 -71.3837 189.049 -58.5957C182.436 -45.8077 178.401 -31.858 177.175 -17.5431C175.95 -3.22812 177.557 11.1717 181.905 24.8343C186.254 38.4968 193.258 51.1545 202.518 62.0846C211.779 73.0148 223.114 82.0033 235.877 88.5371C248.639 95.0708 262.579 99.0218 276.901 100.164C291.223 101.307 305.646 99.619 319.346 95.1965C333.047 90.7741 345.757 83.7039 356.751 74.3897L286.234 -8.84206L215.717 -92.0738Z" fill="url(#paint0_linear_1_1077)" fill-opacity="0.3"/>
</g>
<g filter="url(#filter1_ddi_1_1077)">
<path d="M20.0859 62.4524C20.7477 61.7432 29.6469 53.1955 40.4024 42.9817C50.6011 33.2606 59.1063 25.3069 60.497 24.0366C60.5253 24.0108 60.5773 24.0066 60.6151 24.0129C60.6753 24.0229 60.7015 24.0714 60.7019 24.1324C60.7081 25.1826 60.7582 33.9367 60.7582 43.2032V62.236C60.7582 62.5146 60.5324 62.7405 60.2538 62.7405H52.5856C52.3078 62.7405 52.0823 62.5159 52.0811 62.2382L52.0429 53.274L51.9899 44.997C51.9871 44.5546 51.4568 44.3299 51.137 44.6355L42.097 53.274L32.3457 62.5932C32.252 62.6827 32.1275 62.7327 31.9979 62.7329L26.0989 62.7405C22.7762 62.7405 21.0534 62.7404 20.3978 62.7327C20.1681 62.7397 19.9384 62.7339 20.0151 62.556C20.0322 62.5162 20.0564 62.4842 20.0859 62.4524Z" fill="white"/>
</g>
<g filter="url(#filter2_ddi_1_1077)">
<path d="M65.3482 38.2085V62.6397C65.3482 62.8068 65.4837 62.9422 65.651 62.9422H73.9269C74.0942 62.9422 74.2297 62.8068 74.2297 62.6397V47.1105C74.2297 46.9434 74.3653 46.808 74.5325 46.808H79.4375C85.2105 46.8281 85.7354 46.7475 88.198 45.4567C90.7413 44.1256 92.8406 41.4635 93.7086 38.4585C94.193 36.8047 94.0517 33.2552 93.4461 31.5812C92.5176 29.0602 90.5798 26.8216 88.1576 25.4704L88.1168 25.4478C85.7559 24.1393 85.7551 24.1388 75.0977 24.0586L65.6529 24C65.4849 23.999 65.3482 24.1347 65.3482 24.3025V32.5714C65.3482 32.7375 65.4822 32.8725 65.6484 32.874C65.6488 32.874 65.6486 32.874 65.649 32.874C65.6616 32.8741 81.5473 33.0154 82.4048 33.0154C82.859 33.0154 83.9691 33.1766 84.4233 33.6204C85.0025 34.1864 85.2977 34.7267 85.2812 35.536C85.2656 36.2987 84.8325 37.0486 84.4233 37.4271C84.0142 37.8057 82.8085 37.9061 82.4048 37.9061H65.7519L65.6489 37.906C65.4825 37.9071 65.3482 38.0422 65.3482 38.2085Z" fill="white"/>
</g>
<path d="M28.96 126.976H36.32V122.656H16.224V126.976H23.616V144H28.96V126.976ZM55.4395 135.136V144H60.7835V122.656H55.4395V130.816H44.4635V122.656H39.1195V144H44.4635V135.136H55.4395ZM85.1708 144V139.68H70.9948V134.912H83.5388V130.592H70.9948V126.976H85.1708V122.656H65.6508V144H85.1708ZM95.151 144V135.296H107.439V130.976H95.151V126.976H108.527V122.656H89.807V144H95.151ZM123.241 126.976H130.601V122.656H110.505V126.976H117.897V144H123.241V126.976ZM33.344 177.392L35.488 182H41.472L31.36 160.656H26.112L15.968 182H21.888L23.872 177.392H33.344ZM31.36 173.072H25.792L27.2 169.808C27.936 168.048 28.032 167.792 28.448 166.768C28.864 167.76 29.152 168.432 29.76 169.744L31.36 173.072ZM66.7503 182V160.656H61.5663V167.184C61.5663 172.304 61.6303 175.12 61.7263 176.336C60.4143 174.288 57.4383 170.128 55.4223 167.472L50.2383 160.656H43.8383V182H49.0223V175.568C48.9903 168.688 48.9903 168.208 48.8623 166.256C50.1423 168.304 51.9663 170.96 54.7823 174.704L60.2863 182H66.7503ZM71.6195 182H82.2755C85.8595 182 88.4195 181.36 90.5315 179.888C93.3475 177.968 94.9795 174.736 94.9795 171.152C94.9795 167.6 93.3475 164.4 90.6275 162.544C88.5795 161.168 86.3075 160.656 82.4035 160.656H71.6195V182ZM76.9635 177.68V164.976H82.3395C86.6915 164.976 89.1235 167.28 89.1235 171.312C89.1235 175.376 86.6915 177.68 82.3395 177.68H76.9635ZM34.912 220V215.68H23.776V198.656H18.432V220H34.912ZM49.4655 197.92C42.0415 197.92 36.4415 202.816 36.4415 209.312C36.4415 215.84 42.0415 220.736 49.4975 220.736C53.0815 220.736 56.4415 219.584 58.7775 217.536C61.1135 215.52 62.5535 212.416 62.5535 209.472C62.5535 202.752 57.0495 197.92 49.4655 197.92ZM49.4655 202.08C53.5935 202.08 56.6975 205.216 56.6975 209.408C56.6975 213.408 53.5295 216.576 49.4975 216.576C45.4335 216.576 42.2975 213.408 42.2975 209.312C42.2975 205.248 45.4335 202.08 49.4655 202.08ZM87.965 205.024C87.549 202.496 86.813 201.152 85.149 200C83.229 198.688 80.189 197.92 76.829 197.92C70.173 197.92 66.077 200.64 66.077 205.088C66.077 208.48 68.605 210.592 73.277 211.072L79.293 211.68C81.789 211.936 82.845 212.64 82.845 214.048C82.845 215.808 80.829 216.832 77.341 216.832C75.133 216.832 73.661 216.448 72.477 215.552C71.613 214.88 71.229 214.144 71.069 212.736H65.469C65.661 215.552 66.205 216.96 67.709 218.24C69.661 219.936 72.733 220.768 77.085 220.768C80.541 220.768 82.941 220.352 84.989 219.36C87.389 218.208 88.861 215.968 88.861 213.472C88.861 211.232 87.645 209.248 85.693 208.288C84.253 207.552 82.781 207.2 80.029 206.944L74.845 206.4C72.573 206.176 71.741 205.632 71.741 204.416C71.741 202.816 73.629 201.856 76.797 201.856C78.365 201.856 79.549 202.08 80.541 202.592C81.501 203.104 81.949 203.744 82.333 205.024H87.965ZM114.403 205.024C113.987 202.496 113.251 201.152 111.587 200C109.667 198.688 106.627 197.92 103.267 197.92C96.6105 197.92 92.5145 200.64 92.5145 205.088C92.5145 208.48 95.0425 210.592 99.7145 211.072L105.731 211.68C108.227 211.936 109.283 212.64 109.283 214.048C109.283 215.808 107.267 216.832 103.779 216.832C101.571 216.832 100.099 216.448 98.9145 215.552C98.0505 214.88 97.6665 214.144 97.5065 212.736H91.9065C92.0985 215.552 92.6425 216.96 94.1465 218.24C96.0985 219.936 99.1705 220.768 103.523 220.768C106.979 220.768 109.378 220.352 111.427 219.36C113.827 218.208 115.299 215.968 115.299 213.472C115.299 211.232 114.083 209.248 112.131 208.288C110.691 207.552 109.219 207.2 106.467 206.944L101.283 206.4C99.0105 206.176 98.1785 205.632 98.1785 204.416C98.1785 202.816 100.067 201.856 103.235 201.856C104.803 201.856 105.987 202.08 106.979 202.592C107.939 203.104 108.387 203.744 108.771 205.024H114.403Z" fill="white"/>
</g>
<rect y="242" width="242" height="1" fill="#979797" fill-opacity="0.34"/>
<defs>
<filter id="filter0_f_1_1077" x="168.777" y="-100.074" width="195.974" height="208.585" filterUnits="userSpaceOnUse" color-interpolation-filters="sRGB">
<feFlood flood-opacity="0" result="BackgroundImageFix"/>
<feBlend mode="normal" in="SourceGraphic" in2="BackgroundImageFix" result="shape"/>
<feGaussianBlur stdDeviation="4" result="effect1_foregroundBlur_1_1077"/>
</filter>
<filter id="filter1_ddi_1_1077" x="7.08651" y="11.7022" width="66.5852" height="64.5571" filterUnits="userSpaceOnUse" color-interpolation-filters="sRGB">
<feFlood flood-opacity="0" result="BackgroundImageFix"/>
<feColorMatrix in="SourceAlpha" type="matrix" values="0 0 0 0 0 0 0 0 0 0 0 0 0 0 0 0 0 0 127 0" result="hardAlpha"/>
<feOffset dy="0.60532"/>
<feGaussianBlur stdDeviation="6.45674"/>
<feColorMatrix type="matrix" values="0 0 0 0 0.9125 0 0 0 0 0.9125 0 0 0 0 0.9125 0 0 0 0.12 0"/>
<feBlend mode="normal" in2="BackgroundImageFix" result="effect1_dropShadow_1_1077"/>
<feColorMatrix in="SourceAlpha" type="matrix" values="0 0 0 0 0 0 0 0 0 0 0 0 0 0 0 0 0 0 127 0" result="hardAlpha"/>
<feOffset dy="1.21064"/>
<feGaussianBlur stdDeviation="1.41241"/>
<feColorMatrix type="matrix" values="0 0 0 0 0 0 0 0 0 0 0 0 0 0 0 0 0 0 0.78 0"/>
<feBlend mode="normal" in2="effect1_dropShadow_1_1077" result="effect2_dropShadow_1_1077"/>
<feBlend mode="normal" in="SourceGraphic" in2="effect2_dropShadow_1_1077" result="shape"/>
<feColorMatrix in="SourceAlpha" type="matrix" values="0 0 0 0 0 0 0 0 0 0 0 0 0 0 0 0 0 0 127 0" result="hardAlpha"/>
<feOffset dy="-1.21064"/>
<feGaussianBlur stdDeviation="1.36197"/>
<feComposite in2="hardAlpha" operator="arithmetic" k2="-1" k3="1"/>
<feColorMatrix type="matrix" values="0 0 0 0 0.204167 0 0 0 0 0.204167 0 0 0 0 0.204167 0 0 0 0.28 0"/>
<feBlend mode="normal" in2="shape" result="effect3_innerShadow_1_1077"/>
</filter>
<filter id="filter2_ddi_1_1077" x="52.4347" y="11.6918" width="54.4788" height="64.7692" filterUnits="userSpaceOnUse" color-interpolation-filters="sRGB">
<feFlood flood-opacity="0" result="BackgroundImageFix"/>
<feColorMatrix in="SourceAlpha" type="matrix" values="0 0 0 0 0 0 0 0 0 0 0 0 0 0 0 0 0 0 127 0" result="hardAlpha"/>
<feOffset dy="0.60532"/>
<feGaussianBlur stdDeviation="6.45674"/>
<feColorMatrix type="matrix" values="0 0 0 0 0.9125 0 0 0 0 0.9125 0 0 0 0 0.9125 0 0 0 0.12 0"/>
<feBlend mode="normal" in2="BackgroundImageFix" result="effect1_dropShadow_1_1077"/>
<feColorMatrix in="SourceAlpha" type="matrix" values="0 0 0 0 0 0 0 0 0 0 0 0 0 0 0 0 0 0 127 0" result="hardAlpha"/>
<feOffset dy="1.21064"/>
<feGaussianBlur stdDeviation="1.41241"/>
<feColorMatrix type="matrix" values="0 0 0 0 0 0 0 0 0 0 0 0 0 0 0 0 0 0 0.78 0"/>
<feBlend mode="normal" in2="effect1_dropShadow_1_1077" result="effect2_dropShadow_1_1077"/>
<feBlend mode="normal" in="SourceGraphic" in2="effect2_dropShadow_1_1077" result="shape"/>
<feColorMatrix in="SourceAlpha" type="matrix" values="0 0 0 0 0 0 0 0 0 0 0 0 0 0 0 0 0 0 127 0" result="hardAlpha"/>
<feOffset dy="-1.21064"/>
<feGaussianBlur stdDeviation="1.36197"/>
<feComposite in2="hardAlpha" operator="arithmetic" k2="-1" k3="1"/>
<feColorMatrix type="matrix" values="0 0 0 0 0.204167 0 0 0 0 0.204167 0 0 0 0 0.204167 0 0 0 0.28 0"/>
<feBlend mode="normal" in2="shape" result="effect3_innerShadow_1_1077"/>
</filter>
<linearGradient id="paint0_linear_1_1077" x1="202.518" y1="62.0846" x2="301.5" y2="-18" gradientUnits="userSpaceOnUse">
<stop offset="0.260504" stop-color="#6AA8F1"/>
<stop offset="0.783026" stop-color="#5496E3" stop-opacity="0"/>
</linearGradient>
<clipPath id="clip0_1_1077">
<rect width="242" height="242" fill="white"/>
</clipPath>
</defs>
</svg>
